<svg width="12" height="9" viewBox="0 0 12 9" fill="none" xmlns="http://www.w3.org/2000/svg">
<path d="M4 6.60005L9.9 0.700048C10.0833 0.516715 10.3167 0.425049 10.6 0.425049C10.8833 0.425049 11.1167 0.516715 11.3 0.700048C11.4833 0.883382 11.575 1.11671 11.575 1.40005C11.575 1.68338 11.4833 1.91672 11.3 2.10005L4.7 8.70005C4.5 8.90005 4.26667 9.00005 4 9.00005C3.73333 9.00005 3.5 8.90005 3.3 8.70005L0.7 6.10005C0.516666 5.91672 0.425 5.68338 0.425 5.40005C0.425 5.11671 0.516666 4.88338 0.7 4.70005C0.883333 4.51672 1.11667 4.42505 1.4 4.42505C1.68333 4.42505 1.91667 4.51672 2.1 4.70005L4 6.60005Z" fill="white"/>
</svg>
