<?xml version="1.0" standalone="no"?>
<!DOCTYPE svg PUBLIC "-//W3C//DTD SVG 20010904//EN"
 "http://www.w3.org/TR/2001/REC-SVG-20010904/DTD/svg10.dtd">
<svg version="1.0" xmlns="http://www.w3.org/2000/svg"
 width="32.000000pt" height="32.000000pt" viewBox="0 0 32.000000 32.000000"
 preserveAspectRatio="xMidYMid meet">

<g transform="translate(0.000000,32.000000) scale(0.100000,-0.100000)"
fill="#000000" stroke="none">
<path d="M212 268 c-18 -18 36 -72 55 -57 26 23 8 69 -27 69 -9 0 -21 -5 -28
-12z"/>
<path d="M112 167 c-54 -54 -72 -79 -72 -100 0 -23 4 -27 28 -27 21 0 44 16
95 68 37 37 67 72 67 78 0 6 -10 20 -23 32 l-23 22 -72 -73z m29 -40 c-33 -34
-64 -58 -68 -54 -9 10 108 128 120 120 5 -3 -18 -33 -52 -66z"/>
</g>
</svg>
