<svg width="25" height="25" viewBox="0 0 25 25" fill="none" xmlns="http://www.w3.org/2000/svg">
<path d="M2.66667 22.3334H4.53333L16.0333 10.8334L14.1667 8.96675L2.66667 20.4667V22.3334ZM21.7333 8.90008L16.0667 3.30008L17.9333 1.43341C18.4444 0.922304 19.0724 0.666748 19.8173 0.666748C20.5613 0.666748 21.1889 0.922304 21.7 1.43341L23.5667 3.30008C24.0778 3.81119 24.3444 4.42808 24.3667 5.15075C24.3889 5.87253 24.1444 6.48897 23.6333 7.00008L21.7333 8.90008ZM19.8 10.8667L5.66667 25.0001H0V19.3334L14.1333 5.20008L19.8 10.8667ZM15.1 9.90008L14.1667 8.96675L16.0333 10.8334L15.1 9.90008Z" fill="black"/>
</svg>
