<svg width="24" height="28" viewBox="0 0 24 28" fill="none" xmlns="http://www.w3.org/2000/svg">
<path d="M9.33333 22.0001C9.68696 22.0001 10.0261 21.8596 10.2761 21.6096C10.5262 21.3595 10.6667 21.0204 10.6667 20.6667V12.6667C10.6667 12.3131 10.5262 11.974 10.2761 11.7239C10.0261 11.4739 9.68696 11.3334 9.33333 11.3334C8.97971 11.3334 8.64057 11.4739 8.39052 11.7239C8.14048 11.974 8 12.3131 8 12.6667V20.6667C8 21.0204 8.14048 21.3595 8.39052 21.6096C8.64057 21.8596 8.97971 22.0001 9.33333 22.0001ZM22.6667 6.00008H17.3333V4.66675C17.3333 3.60588 16.9119 2.58847 16.1618 1.83832C15.4116 1.08818 14.3942 0.666748 13.3333 0.666748H10.6667C9.6058 0.666748 8.58838 1.08818 7.83824 1.83832C7.08809 2.58847 6.66667 3.60588 6.66667 4.66675V6.00008H1.33333C0.979711 6.00008 0.640573 6.14056 0.390524 6.39061C0.140476 6.64065 0 6.97979 0 7.33341C0 7.68704 0.140476 8.02618 0.390524 8.27622C0.640573 8.52627 0.979711 8.66675 1.33333 8.66675H2.66667V23.3334C2.66667 24.3943 3.08809 25.4117 3.83824 26.1618C4.58839 26.912 5.6058 27.3334 6.66667 27.3334H17.3333C18.3942 27.3334 19.4116 26.912 20.1618 26.1618C20.9119 25.4117 21.3333 24.3943 21.3333 23.3334V8.66675H22.6667C23.0203 8.66675 23.3594 8.52627 23.6095 8.27622C23.8595 8.02618 24 7.68704 24 7.33341C24 6.97979 23.8595 6.64065 23.6095 6.39061C23.3594 6.14056 23.0203 6.00008 22.6667 6.00008ZM9.33333 4.66675C9.33333 4.31313 9.47381 3.97399 9.72386 3.72394C9.97391 3.47389 10.313 3.33341 10.6667 3.33341H13.3333C13.687 3.33341 14.0261 3.47389 14.2761 3.72394C14.5262 3.97399 14.6667 4.31313 14.6667 4.66675V6.00008H9.33333V4.66675ZM18.6667 23.3334C18.6667 23.687 18.5262 24.0262 18.2761 24.2762C18.0261 24.5263 17.687 24.6667 17.3333 24.6667H6.66667C6.31304 24.6667 5.97391 24.5263 5.72386 24.2762C5.47381 24.0262 5.33333 23.687 5.33333 23.3334V8.66675H18.6667V23.3334ZM14.6667 22.0001C15.0203 22.0001 15.3594 21.8596 15.6095 21.6096C15.8595 21.3595 16 21.0204 16 20.6667V12.6667C16 12.3131 15.8595 11.974 15.6095 11.7239C15.3594 11.4739 15.0203 11.3334 14.6667 11.3334C14.313 11.3334 13.9739 11.4739 13.7239 11.7239C13.4738 11.974 13.3333 12.3131 13.3333 12.6667V20.6667C13.3333 21.0204 13.4738 21.3595 13.7239 21.6096C13.9739 21.8596 14.313 22.0001 14.6667 22.0001Z" fill="black"/>
</svg>
