<?xml version="1.0" standalone="no"?>
<!DOCTYPE svg PUBLIC "-//W3C//DTD SVG 20010904//EN"
 "http://www.w3.org/TR/2001/REC-SVG-20010904/DTD/svg10.dtd">
<svg version="1.0" xmlns="http://www.w3.org/2000/svg"
 width="32.000000pt" height="32.000000pt" viewBox="0 0 32.000000 32.000000"
 preserveAspectRatio="xMidYMid meet">

<g transform="translate(0.000000,32.000000) scale(0.100000,-0.100000)"
fill="#000000" stroke="none">
<path d="M117 284 c-4 -4 -7 -16 -7 -26 0 -14 -8 -18 -35 -18 -36 0 -46 -13
-20 -27 10 -6 15 -32 17 -93 l3 -85 85 0 85 0 3 85 c2 61 7 87 17 93 26 14 16
27 -19 27 -28 0 -35 4 -38 23 -2 18 -10 23 -43 25 -23 2 -44 0 -48 -4z m71
-31 c2 -9 -7 -13 -27 -13 -30 0 -39 9 -24 24 11 10 46 3 51 -11z m40 -120 l-3
-78 -65 0 -65 0 -3 78 -3 77 71 0 71 0 -3 -77z"/>
<path d="M127 184 c-4 -4 -7 -29 -7 -56 0 -63 24 -61 28 2 3 41 -7 68 -21 54z"/>
<path d="M174 177 c-9 -25 0 -90 14 -95 8 -2 12 11 12 47 0 49 -15 76 -26 48z"/>
</g>
</svg>
