<svg width="27" height="27" viewBox="0 0 27 27" fill="none" xmlns="http://www.w3.org/2000/svg">
<path d="M2.66667 24C1.93333 24 1.30533 23.7391 0.782667 23.2173C0.260889 22.6947 0 22.0667 0 21.3333V2.66667C0 1.93333 0.260889 1.30533 0.782667 0.782667C1.30533 0.260889 1.93333 0 2.66667 0H21.3333C22.0667 0 22.6947 0.260889 23.2173 0.782667C23.7391 1.30533 24 1.93333 24 2.66667V11.6C23.5778 11.4 23.1444 11.2276 22.7 11.0827C22.2556 10.9387 21.8 10.8333 21.3333 10.7667V2.66667H2.66667V21.3333H10.7333C10.8 21.8222 10.9058 22.2889 11.0507 22.7333C11.1947 23.1778 11.3667 23.6 11.5667 24H2.66667ZM2.66667 20V21.3333V2.66667V10.7667V10.6667V20ZM5.33333 17.3333C5.33333 17.7111 5.46089 18.0276 5.716 18.2827C5.972 18.5387 6.28889 18.6667 6.66667 18.6667H10.7667C10.8333 18.2 10.9387 17.7444 11.0827 17.3C11.2276 16.8556 11.3889 16.4222 11.5667 16H6.66667C6.28889 16 5.972 16.1276 5.716 16.3827C5.46089 16.6387 5.33333 16.9556 5.33333 17.3333ZM5.33333 12C5.33333 12.3778 5.46089 12.6942 5.716 12.9493C5.972 13.2053 6.28889 13.3333 6.66667 13.3333H13.4667C14.1778 12.6667 14.972 12.1111 15.8493 11.6667C16.7276 11.2222 17.6667 10.9222 18.6667 10.7667C18.4667 10.7222 18.2444 10.6942 18 10.6827C17.7556 10.672 17.5333 10.6667 17.3333 10.6667H6.66667C6.28889 10.6667 5.972 10.7942 5.716 11.0493C5.46089 11.3053 5.33333 11.6222 5.33333 12ZM5.33333 6.66667C5.33333 7.04444 5.46089 7.36089 5.716 7.616C5.972 7.872 6.28889 8 6.66667 8H17.3333C17.7111 8 18.0276 7.872 18.2827 7.616C18.5387 7.36089 18.6667 7.04444 18.6667 6.66667C18.6667 6.28889 18.5387 5.972 18.2827 5.716C18.0276 5.46089 17.7111 5.33333 17.3333 5.33333H6.66667C6.28889 5.33333 5.972 5.46089 5.716 5.716C5.46089 5.972 5.33333 6.28889 5.33333 6.66667ZM20 26.6667C18.1556 26.6667 16.5836 26.0169 15.284 24.7173C13.9836 23.4169 13.3333 21.8444 13.3333 20C13.3333 18.1556 13.9836 16.5831 15.284 15.2827C16.5836 13.9831 18.1556 13.3333 20 13.3333C21.8444 13.3333 23.4169 13.9831 24.7173 15.2827C26.0169 16.5831 26.6667 18.1556 26.6667 20C26.6667 21.8444 26.0169 23.4169 24.7173 24.7173C23.4169 26.0169 21.8444 26.6667 20 26.6667ZM19.3333 20.6667V23.3333C19.3333 23.5111 19.4 23.6667 19.5333 23.8C19.6667 23.9333 19.8222 24 20 24C20.1778 24 20.3333 23.9333 20.4667 23.8C20.6 23.6667 20.6667 23.5111 20.6667 23.3333V20.6667H23.3333C23.5111 20.6667 23.6667 20.6 23.8 20.4667C23.9333 20.3333 24 20.1778 24 20C24 19.8222 23.9333 19.6667 23.8 19.5333C23.6667 19.4 23.5111 19.3333 23.3333 19.3333H20.6667V16.6667C20.6667 16.4889 20.6 16.3333 20.4667 16.2C20.3333 16.0667 20.1778 16 20 16C19.8222 16 19.6667 16.0667 19.5333 16.2C19.4 16.3333 19.3333 16.4889 19.3333 16.6667V19.3333H16.6667C16.4889 19.3333 16.3333 19.4 16.2 19.5333C16.0667 19.6667 16 19.8222 16 20C16 20.1778 16.0667 20.3333 16.2 20.4667C16.3333 20.6 16.4889 20.6667 16.6667 20.6667H19.3333Z" fill="currentColor"/>
</svg>
