<svg id="icon" width="24" height="27" viewBox="0 0 24 27" fill="none" xmlns="http://www.w3.org/2000/svg">
<path d="M2.66667 27C1.93333 27 1.30533 26.7391 0.782667 26.2173C0.260889 25.6947 0 25.0667 0 24.3333V5.66668C0 4.93334 0.260889 4.30534 0.782667 3.78268C1.30533 3.2609 1.93333 3.00001 2.66667 3.00001H8.23333C8.47778 2.22223 8.95556 1.58312 9.66667 1.08268C10.3778 0.583121 11.1556 0.333344 12 0.333344C12.8889 0.333344 13.6836 0.583121 14.384 1.08268C15.0836 1.58312 15.5556 2.22223 15.8 3.00001H21.3333C22.0667 3.00001 22.6947 3.2609 23.2173 3.78268C23.7391 4.30534 24 4.93334 24 5.66668V24.3333C24 25.0667 23.7391 25.6947 23.2173 26.2173C22.6947 26.7391 22.0667 27 21.3333 27H2.66667ZM2.66667 24.3333H21.3333V5.66668H18.6667V9.66668H5.33333V5.66668H2.66667V24.3333ZM12 5.66668C12.3778 5.66668 12.6947 5.53868 12.9507 5.28268C13.2058 5.02757 13.3333 4.71112 13.3333 4.33334C13.3333 3.95557 13.2058 3.63868 12.9507 3.38268C12.6947 3.12757 12.3778 3.00001 12 3.00001C11.6222 3.00001 11.3058 3.12757 11.0507 3.38268C10.7947 3.63868 10.6667 3.95557 10.6667 4.33334C10.6667 4.71112 10.7947 5.02757 11.0507 5.28268C11.3058 5.53868 11.6222 5.66668 12 5.66668Z" fill="currentColor"/>
</svg>
