<svg id="icon" width="24" height="28" viewBox="0 0 24 28" fill="none" xmlns="http://www.w3.org/2000/svg">
<path d="M9.33333 22C9.68696 22 10.0261 21.8595 10.2761 21.6095C10.5262 21.3594 10.6667 21.0203 10.6667 20.6667V12.6667C10.6667 12.313 10.5262 11.9739 10.2761 11.7238C10.0261 11.4738 9.68696 11.3333 9.33333 11.3333C8.97971 11.3333 8.64057 11.4738 8.39052 11.7238C8.14048 11.9739 8 12.313 8 12.6667V20.6667C8 21.0203 8.14048 21.3594 8.39052 21.6095C8.64057 21.8595 8.97971 22 9.33333 22ZM22.6667 5.99999H17.3333V4.66666C17.3333 3.60579 16.9119 2.58838 16.1618 1.83823C15.4116 1.08808 14.3942 0.666656 13.3333 0.666656H10.6667C9.6058 0.666656 8.58838 1.08808 7.83824 1.83823C7.08809 2.58838 6.66667 3.60579 6.66667 4.66666V5.99999H1.33333C0.979711 5.99999 0.640573 6.14047 0.390524 6.39051C0.140476 6.64056 0 6.9797 0 7.33332C0 7.68695 0.140476 8.02608 0.390524 8.27613C0.640573 8.52618 0.979711 8.66666 1.33333 8.66666H2.66667V23.3333C2.66667 24.3942 3.08809 25.4116 3.83824 26.1618C4.58839 26.9119 5.6058 27.3333 6.66667 27.3333H17.3333C18.3942 27.3333 19.4116 26.9119 20.1618 26.1618C20.9119 25.4116 21.3333 24.3942 21.3333 23.3333V8.66666H22.6667C23.0203 8.66666 23.3594 8.52618 23.6095 8.27613C23.8595 8.02608 24 7.68695 24 7.33332C24 6.9797 23.8595 6.64056 23.6095 6.39051C23.3594 6.14047 23.0203 5.99999 22.6667 5.99999ZM9.33333 4.66666C9.33333 4.31303 9.47381 3.9739 9.72386 3.72385C9.97391 3.4738 10.313 3.33332 10.6667 3.33332H13.3333C13.687 3.33332 14.0261 3.4738 14.2761 3.72385C14.5262 3.9739 14.6667 4.31303 14.6667 4.66666V5.99999H9.33333V4.66666ZM18.6667 23.3333C18.6667 23.6869 18.5262 24.0261 18.2761 24.2761C18.0261 24.5262 17.687 24.6667 17.3333 24.6667H6.66667C6.31304 24.6667 5.97391 24.5262 5.72386 24.2761C5.47381 24.0261 5.33333 23.6869 5.33333 23.3333V8.66666H18.6667V23.3333ZM14.6667 22C15.0203 22 15.3594 21.8595 15.6095 21.6095C15.8595 21.3594 16 21.0203 16 20.6667V12.6667C16 12.313 15.8595 11.9739 15.6095 11.7238C15.3594 11.4738 15.0203 11.3333 14.6667 11.3333C14.313 11.3333 13.9739 11.4738 13.7239 11.7238C13.4738 11.9739 13.3333 12.313 13.3333 12.6667V20.6667C13.3333 21.0203 13.4738 21.3594 13.7239 21.6095C13.9739 21.8595 14.313 22 14.6667 22Z" fill="currentColor"/>
</svg>
