<svg width="32" height="32" viewBox="0 0 32 32" fill="none" xmlns="http://www.w3.org/2000/svg">
<path d="M6.66667 25.3334H8.53333L20.0333 13.8334L18.1667 11.9667L6.66667 23.4667V25.3334ZM25.7333 11.9001L20.0667 6.30008L21.9333 4.43341C22.4444 3.9223 23.0724 3.66675 23.8173 3.66675C24.5613 3.66675 25.1889 3.9223 25.7 4.43341L27.5667 6.30008C28.0778 6.81119 28.3444 7.42808 28.3667 8.15075C28.3889 8.87253 28.1444 9.48897 27.6333 10.0001L25.7333 11.9001ZM23.8 13.8667L9.66667 28.0001H4V22.3334L18.1333 8.20008L23.8 13.8667ZM19.1 12.9001L18.1667 11.9667L20.0333 13.8334L19.1 12.9001Z" fill="black"/>
</svg>
