<svg width="30" height="30" viewBox="0 0 30 30" fill="none" xmlns="http://www.w3.org/2000/svg">
<path d="M26.9999 21.6666V9.66665H8.33325V21.6666H26.9999ZM26.9999 2.99998C28.4666 2.99998 29.6666 4.19998 29.6666 5.66665V21.6666C29.6666 23.1333 28.4666 24.3333 26.9999 24.3333H8.33325C7.62601 24.3333 6.94773 24.0524 6.44763 23.5523C5.94754 23.0522 5.66659 22.3739 5.66659 21.6666V5.66665C5.66659 4.19998 6.86659 2.99998 8.33325 2.99998H9.66659V0.333313H12.3333V2.99998H22.9999V0.333313H25.6666V2.99998H26.9999ZM2.99992 27H21.6666V29.6666H2.99992C2.29267 29.6666 1.6144 29.3857 1.1143 28.8856C0.614204 28.3855 0.333252 27.7072 0.333252 27V11H2.99992V27Z" fill="currentColor"/>
</svg>
