<svg width="26" height="27" viewBox="0 0 26 27" fill="none" xmlns="http://www.w3.org/2000/svg">
<ellipse cx="12.8491" cy="13.1055" rx="12.567" ry="13" fill="#EBEAEA"/>
<path d="M9.75571 22.9055V25.605C11.2004 26.1207 10.9157 26.105 12.8491 26.105C14.7825 26.105 14.9124 25.8903 16.0392 25.605V22.4509V21.105C15.9115 20.1525 15.5534 19.8122 15.0725 19.205C16.1417 19.0768 16.7126 18.9441 17.6826 18.605C18.7027 18.1294 19.1363 17.7949 19.616 17.105C20.4913 15.781 20.7703 14.9312 20.8727 13.105C20.8156 11.4352 20.5468 10.5757 19.616 9.10504C19.827 7.69703 19.8035 6.95468 19.4227 5.80504C18.012 5.7154 17.4886 6.22711 16.0392 7.10504C13.5952 6.61817 12.1567 6.61509 9.4657 7.10504C8.2614 6.18993 7.56547 5.88035 6.27561 5.80547C5.84725 7.0947 5.84205 7.81099 6.08227 9.10504C5.48075 10.1088 5.22567 10.6252 4.92223 11.605C4.73642 14.3186 4.99613 15.5176 6.08227 17.105C7.55831 18.5414 8.70207 19.0607 10.6257 19.2055C9.89948 19.8082 9.97888 20.0679 9.75571 20.9055C9.0034 21.2866 8.5204 21.3116 7.53231 21.105C6.83409 20.8214 6.4157 20.3469 5.59892 19.105C4.83683 18.555 4.41389 18.4843 3.66553 18.605C3.70668 18.9877 3.80404 19.201 4.14888 19.355C4.80129 19.774 5.11855 20.2596 5.59892 21.605C6.63742 23.2089 7.87536 23.3115 9.75571 22.9055Z" fill="#6E6D6D"/>
</svg>
