<svg width="26" height="26" viewBox="0 0 26 26" fill="none" xmlns="http://www.w3.org/2000/svg">
<ellipse cx="12.9488" cy="13" rx="12.9488" ry="13" fill="#003A6C"/>
<path d="M9.76139 22.8005V25.5001C11.2499 26.0157 10.9567 26.0001 12.9488 26.0001C14.9409 26.0001 15.0747 25.7853 16.2358 25.5001V22.3459V21.0001C16.1041 20.0475 15.7351 19.7072 15.2397 19.1001C16.3413 18.9718 16.9296 18.8391 17.9291 18.5001C18.9802 18.0244 19.4269 17.6899 19.9212 17.0001C20.8231 15.676 21.1106 14.8262 21.2161 13.0001C21.1572 11.3302 20.8803 10.4707 19.9212 9.00006C20.1386 7.59205 20.1144 6.8497 19.722 5.70006C18.2685 5.61042 17.7292 6.12213 16.2358 7.00006C13.7175 6.51319 12.2353 6.51011 9.46257 7.00006C8.22168 6.08495 7.50462 5.77537 6.17557 5.70049C5.73421 6.98972 5.72884 7.70601 5.97636 9.00006C5.35656 10.0038 5.09374 10.5202 4.78109 11.5001C4.58962 14.2136 4.85723 15.4127 5.97636 17.0001C7.49724 18.4365 8.67574 18.9558 10.6578 19.1005C9.90953 19.7032 9.99134 19.9629 9.76139 20.8005C8.98623 21.1816 8.48855 21.2066 7.47045 21.0001C6.75102 20.7164 6.31992 20.2419 5.47833 19.0001C4.69308 18.45 4.2573 18.3793 3.48621 18.5001C3.52861 18.8827 3.62892 19.096 3.98424 19.2501C4.65647 19.669 4.98337 20.1546 5.47833 21.5001C6.54838 23.1039 7.82392 23.2065 9.76139 22.8005Z" fill="white"/>
</svg>
