<svg width="26" height="26" viewBox="0 0 26 26" fill="none" xmlns="http://www.w3.org/2000/svg">
<path d="M3.25 8.125H22.75C23.647 8.125 24.375 7.397 24.375 6.5C24.375 5.603 23.647 4.875 22.75 4.875H3.25C2.353 4.875 1.625 5.603 1.625 6.5C1.625 7.397 2.353 8.125 3.25 8.125ZM22.75 11.375H3.25C2.353 11.375 1.625 12.103 1.625 13C1.625 13.897 2.353 14.625 3.25 14.625H22.75C23.647 14.625 24.375 13.897 24.375 13C24.375 12.103 23.647 11.375 22.75 11.375ZM22.75 17.875H3.25C2.353 17.875 1.625 18.603 1.625 19.5C1.625 20.397 2.353 21.125 3.25 21.125H22.75C23.647 21.125 24.375 20.397 24.375 19.5C24.375 18.603 23.647 17.875 22.75 17.875Z" fill="white"/>
</svg>
