<svg width="24" height="18" viewBox="0 0 24 18" fill="none" xmlns="http://www.w3.org/2000/svg">
<path d="M2.25 4.125H21.75C22.647 4.125 23.375 3.397 23.375 2.5C23.375 1.603 22.647 0.875 21.75 0.875H2.25C1.353 0.875 0.625 1.603 0.625 2.5C0.625 3.397 1.353 4.125 2.25 4.125ZM21.75 7.375H2.25C1.353 7.375 0.625 8.103 0.625 9C0.625 9.897 1.353 10.625 2.25 10.625H21.75C22.647 10.625 23.375 9.897 23.375 9C23.375 8.103 22.647 7.375 21.75 7.375ZM21.75 13.875H2.25C1.353 13.875 0.625 14.603 0.625 15.5C0.625 16.397 1.353 17.125 2.25 17.125H21.75C22.647 17.125 23.375 16.397 23.375 15.5C23.375 14.603 22.647 13.875 21.75 13.875Z" fill="black"/>
</svg>
