<svg width="27" height="27" viewBox="0 0 27 27" fill="none" xmlns="http://www.w3.org/2000/svg">
<circle cx="13.2821" cy="13.1055" r="13" fill="#EBEAEA"/>
<path d="M13.8159 10.1055H10.9158V19.6055H13.8159V14.1055C13.8159 13.1055 14.5893 12.6055 15.556 12.6055C16.5227 12.6055 17.1993 13.1055 17.1993 14.1055V19.6055H20.0994V13.6055C20.0994 12.6569 20.0994 12.2082 19.7328 11.7055C19.5196 11.4131 19.1825 11.0363 18.6494 10.7055C17.9729 10.3555 17.3244 10.3073 16.716 10.3055C15.5856 10.302 14.5933 10.6425 13.8159 11.6055V10.1055Z" fill="#6E6D6D"/>
<path d="M8.98242 10.1055H6.08234V19.6055H8.98242V10.1055Z" fill="#6E6D6D"/>
<path d="M8.98242 7.60547C8.98242 8.4339 8.33322 9.10547 7.53238 9.10547C6.73154 9.10547 6.08234 8.4339 6.08234 7.60547C6.08234 6.77704 6.73154 6.10547 7.53238 6.10547C8.33322 6.10547 8.98242 6.77704 8.98242 7.60547Z" fill="#6E6D6D"/>
</svg>
