<svg width="26" height="26" viewBox="0 0 26 26" fill="none" xmlns="http://www.w3.org/2000/svg">
<circle cx="13" cy="13" r="13" fill="#003A6C"/>
<path d="M13.9449 10H10.9567V19.5H13.9449V14C13.9449 13 14.7418 12.5 15.7378 12.5C16.7339 12.5 17.4311 13 17.4311 14V19.5H20.4193V13.5C20.4193 12.5514 20.4193 12.1028 20.0415 11.6C19.8219 11.3077 19.4745 10.9309 18.9252 10.6C18.2282 10.2501 17.56 10.2018 16.9331 10.2C15.7683 10.1965 14.7459 10.537 13.9449 11.5V10Z" fill="white"/>
<path d="M8.96462 10H5.97644V19.5H8.96462V10Z" fill="white"/>
<path d="M8.96462 7.5C8.96462 8.32843 8.29569 9 7.47053 9C6.64537 9 5.97644 8.32843 5.97644 7.5C5.97644 6.67157 6.64537 6 7.47053 6C8.29569 6 8.96462 6.67157 8.96462 7.5Z" fill="white"/>
</svg>
