<svg width="128" height="128" viewBox="0 0 128 128" fill="none" xmlns="http://www.w3.org/2000/svg">
<path d="M82.6667 5.33331H40C36.4638 5.33331 33.0724 6.73807 30.5719 9.23856C28.0714 11.739 26.6667 15.1304 26.6667 18.6666V109.333C26.6667 112.87 28.0714 116.261 30.5719 118.761C33.0724 121.262 36.4638 122.667 40 122.667H82.6667C86.2029 122.667 89.5943 121.262 92.0948 118.761C94.5953 116.261 96 112.87 96 109.333V18.6666C96 15.1304 94.5953 11.739 92.0948 9.23856C89.5943 6.73807 86.2029 5.33331 82.6667 5.33331ZM61.3334 117.333C56.9067 117.333 53.3334 113.76 53.3334 109.333C53.3334 104.907 56.9067 101.333 61.3334 101.333C65.76 101.333 69.3334 104.907 69.3334 109.333C69.3334 113.76 65.76 117.333 61.3334 117.333ZM85.3334 96H37.3334V21.3333H85.3334V96Z" fill="#0084F7"/>
<mask id="mask0_245_539" style="mask-type:luminance" maskUnits="userSpaceOnUse" x="41" y="40" width="40" height="37">
<path d="M43 58C38.96 50.957 46.624 46.864 51 46C65.541 33.156 77.485 45.713 79 54C80.514 62.287 80.158 68.893 81 72C74.537 63.3 70.123 64.841 69 67C66.98 71.144 63.686 71.252 62 70C57.96 66.686 51.524 73.202 49 77C53.847 68.3 54.505 62.727 54 61C51.98 52.714 45.693 55.584 43 58Z" fill="white"/>
<path d="M60 53C61.1046 53 62 52.1046 62 51C62 49.8954 61.1046 49 60 49C58.8954 49 58 49.8954 58 51C58 52.1046 58.8954 53 60 53Z" fill="black"/>
</mask>
<g mask="url(#mask0_245_539)">
<path d="M37 35H85V83H37V35Z" fill="#0084F7"/>
</g>
</svg>
