<svg width="16" height="16" viewBox="0 0 16 16" fill="none" xmlns="http://www.w3.org/2000/svg">
<path d="M1.30005 3.75H7.18005V2.5H1.30005C0.968528 2.5 0.650586 2.6317 0.416165 2.86612C0.181745 3.10054 0.0500488 3.41848 0.0500488 3.75V12.25C0.0500488 12.5815 0.181745 12.8995 0.416165 13.1339C0.650586 13.3683 0.968528 13.5 1.30005 13.5H7.18005V12.25H1.30005V3.75Z" fill="white"/>
<path d="M15.4 7.00001L11.4 4.26001L10.69 5.26001L13.77 7.36001H4.70996V8.62001H13.78L10.7 10.73L11.41 11.73L15.4 9.00001C15.557 8.88484 15.6848 8.73429 15.7728 8.56055C15.8609 8.38682 15.9067 8.19478 15.9067 8.00001C15.9067 7.80524 15.8609 7.6132 15.7728 7.43947C15.6848 7.26573 15.557 7.11518 15.4 7.00001Z" fill="white"/>
</svg>
