<svg width="24" height="24" viewBox="0 0 24 24" fill="none" xmlns="http://www.w3.org/2000/svg">
<path d="M14.35 20.7749L9 18.8999L4.35 20.6999C4.01667 20.8332 3.70833 20.7956 3.425 20.5869C3.14167 20.3789 3 20.0999 3 19.7499V5.74989C3 5.53322 3.06267 5.34156 3.188 5.17489C3.31267 5.00822 3.48333 4.88322 3.7 4.79989L8.35 3.22489C8.56667 3.15822 8.78333 3.12056 9 3.11189C9.21667 3.10389 9.43333 3.14156 9.65 3.22489L15 5.09989L19.65 3.29989C19.9833 3.16656 20.2917 3.20389 20.575 3.41189C20.8583 3.62056 21 3.89989 21 4.24989V18.2499C21 18.4666 20.9373 18.6582 20.812 18.8249C20.6873 18.9916 20.5167 19.1166 20.3 19.1999L15.65 20.7749C15.4333 20.8416 15.2167 20.8789 15 20.8869C14.7833 20.8956 14.5667 20.8582 14.35 20.7749ZM14 18.5499V6.84989L10 5.44989V17.1499L14 18.5499ZM16 18.5499L19 17.5499V5.69989L16 6.84989V18.5499ZM5 18.2999L8 17.1499V5.44989L5 6.44989V18.2999Z" fill="white"/>
</svg>
