<svg width="24" height="24" viewBox="0 0 24 24" fill="none" xmlns="http://www.w3.org/2000/svg">
<g clip-path="url(#clip0_615_898)">
<path d="M16 3C16.5046 2.99984 16.9906 3.19041 17.3605 3.5335C17.7305 3.87659 17.9572 4.34684 17.995 4.85L18 5V10H19.5C19.8729 10 20.2324 10.1389 20.5084 10.3896C20.7844 10.6403 20.9572 10.9848 20.993 11.356L21 11.5V19C21 19.7652 20.7077 20.5015 20.1827 21.0583C19.6578 21.615 18.9399 21.9501 18.176 21.995L18 22H5C4.49542 22.0002 4.00943 21.8096 3.63945 21.4665C3.26947 21.1234 3.04284 20.6532 3.005 20.15L3 20V5C2.99984 4.49542 3.19041 4.00943 3.5335 3.63945C3.87659 3.26947 4.34684 3.04284 4.85 3.005L5 3H16ZM19 12H18V20C18.2652 20 18.5196 19.8946 18.7071 19.7071C18.8946 19.5196 19 19.2652 19 19V12ZM16 5H5V20H16V5ZM11 13C11.2549 13.0003 11.5 13.0979 11.6854 13.2728C11.8707 13.4478 11.9822 13.687 11.9972 13.9414C12.0121 14.1958 11.9293 14.4464 11.7657 14.6418C11.6021 14.8373 11.3701 14.9629 11.117 14.993L11 15H8C7.74512 14.9997 7.49997 14.9021 7.31463 14.7272C7.1293 14.5522 7.01777 14.313 7.00283 14.0586C6.98789 13.8042 7.07067 13.5536 7.23426 13.3582C7.39786 13.1627 7.6299 13.0371 7.883 13.007L8 13H11ZM13 8C13.2652 8 13.5196 8.10536 13.7071 8.29289C13.8946 8.48043 14 8.73478 14 9C14 9.26522 13.8946 9.51957 13.7071 9.70711C13.5196 9.89464 13.2652 10 13 10H8C7.73478 10 7.48043 9.89464 7.29289 9.70711C7.10536 9.51957 7 9.26522 7 9C7 8.73478 7.10536 8.48043 7.29289 8.29289C7.48043 8.10536 7.73478 8 8 8H13Z" fill="white"/>
</g>
<defs>
<clipPath id="clip0_615_898">
<rect width="24" height="24" fill="white"/>
</clipPath>
</defs>
</svg>
